<svg width="222" height="316" viewBox="0 0 222 316" fill="none" xmlns="http://www.w3.org/2000/svg">
<path d="M216.998 24.127H201.414V8.53906H216.998V24.127ZM203.675 21.867H214.74V10.799H203.675V21.867Z" fill="#383635"/>
<path d="M20.5842 24.127H4.99994V8.53906H20.5842V24.127ZM7.25942 21.867H18.3248V10.799H7.25942V21.867Z" fill="#383635"/>
<path d="M192.404 28.5623H181.153V17.3078H185.278V12.9885H192.404V17.3078H196.742V10.799H25.2583V17.3078H29.5954V12.9885H36.7216V17.3078H40.8472V28.5623H29.5954V24.127H19.4545V21.867H29.5954V19.5678H22.9988V8.53906H198.999V19.5678H192.403V21.867H202.544V24.127H192.403V28.5623H192.404ZM183.412 26.3023H190.145V24.127H185.278V19.5678H183.412V26.3023ZM31.8549 26.3023H38.5878V19.5678H36.7216V24.127H31.8549V26.3023ZM187.538 21.867H190.145V19.5678H187.538V21.867ZM31.8549 21.867H34.4622V19.5678H31.8549V21.867ZM187.538 17.3078H190.145V15.2485H187.538V17.3078ZM31.8549 17.3078H34.4622V15.2485H31.8549V17.3078Z" fill="#383635"/>
<path d="M216.998 307.498H201.414V291.91H216.998V307.498ZM203.675 305.238H214.741V294.17H203.675V305.238Z" fill="#383635"/>
<path d="M203.675 293.04H201.416V282.896H196.981V271.643H208.233V275.77H212.552V282.896H208.233V287.236H214.741V28.8022H208.233V33.1419H212.552V40.2682H208.233V44.3948H196.981V33.1403H201.416V22.9971H203.675V33.1403H205.974V26.5422H217V289.496H205.974V282.896H203.675V293.04ZM208.232 280.636H210.291V278.028H208.232V280.636ZM203.675 280.636H205.974V278.028H203.675V280.636ZM199.239 280.636H201.414V275.77H205.972V273.903H199.239V280.636ZM199.239 42.1348H205.972V40.2666H201.414V35.4003H199.239V42.1348ZM208.232 38.0082H210.291V35.4003H208.232V38.0082ZM203.675 38.0082H205.974V35.4003H203.675V38.0082Z" fill="#383635"/>
<path d="M20.5841 307.498H4.99982V291.91H20.5841V307.498ZM7.2593 305.238H18.3246V294.17H7.2593V305.238Z" fill="#383635"/>
<path d="M20.5842 293.04H18.3247V282.896H16.0261V289.496H4.99988V26.5422H16.0261V33.1403H18.3247V22.9971H20.5842V33.1403H25.0184V44.3948H13.7666V40.2682H9.4483V33.1419H13.7666V28.8022H7.25936V287.236H13.7666V282.896H9.4483V275.77H13.7666V271.643H25.0184V282.896H20.5842V293.04ZM20.5842 280.636H22.759V273.902H16.0261V275.769H20.5842V280.636ZM16.0261 280.636H18.3247V278.028H16.0261V280.636ZM11.7093 280.636H13.7682V278.028H11.7093V280.636ZM16.0261 42.1348H22.759V35.4003H20.5842V40.2666H16.0261V42.1348ZM16.0261 38.0082H18.3247V35.4003H16.0261V38.0082ZM11.7093 38.0082H13.7682V35.4003H11.7093V38.0082Z" fill="#383635"/>
<path d="M199.001 307.497H22.9988V296.468H29.5954V294.169H19.4544V291.909H29.5954V287.476H40.8472V298.728H36.7216V303.048H29.5954V298.728H25.2582V305.237H196.742V298.728H192.404V303.048H185.278V298.728H181.153V287.476H192.404V291.909H202.545V294.169H192.404V296.468H199.001V307.497ZM187.538 300.788H190.145V298.728H187.538V300.788ZM31.8548 300.788H34.4621V298.728H31.8548V300.788ZM187.538 296.468H190.145V294.169H187.538V296.468ZM183.412 296.468H185.278V291.909H190.145V289.734H183.412V296.468ZM36.7216 296.468H38.5877V289.734H31.8548V291.909H36.7216V296.468ZM31.8548 296.468H34.4621V294.169H31.8548V296.468Z" fill="#383635"/>
<path d="M140.906 299.501H81.0942C43.5657 299.501 13.0349 268.963 13.0349 231.426V84.6089C13.0349 47.0716 43.5657 16.5337 81.0942 16.5337H140.906C178.434 16.5337 208.963 47.0716 208.963 84.6089V231.428C208.963 268.964 178.432 299.501 140.906 299.501ZM81.0942 17.0995C43.8775 17.0995 13.6005 47.3835 13.6005 84.6089V231.428C13.6005 268.653 43.8775 298.937 81.0942 298.937H140.906C178.122 298.937 208.399 268.653 208.399 231.428V84.6089C208.399 47.3835 178.122 17.0995 140.906 17.0995H81.0942Z" fill="#383635"/>
<path d="M43.3416 14.3003V22.7023C50.3362 18.5883 58.1268 15.6842 66.4376 14.3003H43.3416Z" fill="#383635"/>
<path d="M10.8021 46.8896V69.9502C12.1826 61.6548 15.0766 53.8749 19.1772 46.8896H10.8021Z" fill="#383635"/>
<path d="M178.657 14.3003V22.7023C171.662 18.5883 163.872 15.6842 155.561 14.3003H178.657Z" fill="#383635"/>
<path d="M211.198 46.8896V69.9502C209.817 61.6548 206.923 53.8749 202.823 46.8896H211.198Z" fill="#383635"/>
<path d="M43.3416 301.737V293.335C50.3362 297.449 58.1268 300.353 66.4376 301.737H43.3416Z" fill="#383635"/>
<path d="M10.8021 269.147V246.086C12.1826 254.382 15.0766 262.162 19.1772 269.147H10.8021Z" fill="#383635"/>
<path d="M178.657 301.737V293.335C171.662 297.449 163.872 300.353 155.561 301.737H178.657Z" fill="#383635"/>
<path d="M211.198 269.147V246.086C209.817 254.382 206.923 262.162 202.823 269.147H211.198Z" fill="#383635"/>
</svg>
