<svg width="222" height="316" viewBox="0 0 222 316" fill="none" xmlns="http://www.w3.org/2000/svg">
<path d="M216.997 15.7347V8.52344H209.787V13.5935L208.618 15.1069V8.52344H202.717C206.134 9.07724 208.618 15.1069 204.902 19.9193L203.354 21.9242H201.408V24.0536L197.651 25.6824L191.718 33.8117L199.845 27.8769L201.473 24.1187H203.602V22.176L205.607 20.6271C210.418 16.9074 216.446 19.3951 217 22.8127V16.9104H210.418L211.931 15.7406H216.997V15.7347Z" fill="#383635"/>
<path d="M203.898 11.4291C202.56 10.6236 200.994 10.5288 199.937 10.5288H22.0602C21.0002 10.5288 19.4369 10.6236 18.0987 11.4291C16.6804 12.2879 15.807 13.9108 15.8751 15.5634C15.9402 17.2159 16.938 18.7647 18.4155 19.5081C19.0106 19.8072 19.6501 19.9582 20.2748 19.9582C20.6627 19.9582 21.0417 19.899 21.397 19.7805C22.5014 19.4133 23.3304 18.4745 23.5051 17.3876C23.7035 16.1557 22.9751 14.8793 21.8441 14.4824C21.2223 14.2603 20.5147 14.3284 19.9077 14.669C19.81 14.7223 19.7478 14.8141 19.662 14.8793C19.505 14.9829 19.3629 15.0954 19.2445 15.2376C19.2001 15.2909 19.1705 15.3472 19.1349 15.4005C19.0106 15.5811 18.9188 15.7736 18.8596 15.9898C18.8478 16.0342 18.8122 16.0698 18.8004 16.1142L18.8329 16.1201C18.8063 16.2504 18.753 16.3748 18.753 16.514C18.753 17.0382 18.9662 17.5091 19.2948 17.8674C19.28 17.8585 19.2623 17.8615 19.2474 17.8526C18.374 17.4143 17.7611 16.4637 17.7226 15.4893C17.6841 14.515 18.22 13.517 19.058 13.0105C19.7745 12.5782 20.7308 12.3768 22.0632 12.3768H199.94C201.272 12.3768 202.228 12.5782 202.945 13.0105C203.783 13.517 204.319 14.512 204.28 15.4893C204.242 16.4637 203.629 17.4143 202.756 17.8526C202.741 17.8615 202.723 17.8585 202.708 17.8674C203.04 17.5091 203.25 17.0411 203.25 16.514C203.25 16.3748 203.197 16.2534 203.17 16.1201L203.203 16.1142C203.194 16.0698 203.158 16.0342 203.143 15.9898C203.084 15.7736 202.992 15.5811 202.868 15.4005C202.829 15.3442 202.8 15.2879 202.758 15.2376C202.637 15.0954 202.495 14.9829 202.341 14.8793C202.252 14.8141 202.193 14.7223 202.095 14.669C201.488 14.3314 200.781 14.2633 200.159 14.4824C199.031 14.8793 198.299 16.1557 198.498 17.3876C198.673 18.4716 199.502 19.4103 200.606 19.7805C200.964 19.899 201.343 19.9582 201.728 19.9582C202.35 19.9582 202.992 19.8072 203.585 19.5081C205.062 18.7647 206.063 17.2159 206.128 15.5634C206.19 13.9108 205.317 12.2879 203.898 11.4291Z" fill="#383635"/>
<path d="M5.00304 15.7347V8.52344H12.2126V13.5935L13.3821 15.1069V8.52344H19.283C15.8662 9.07724 13.3821 15.1069 17.1009 19.9193L18.6494 21.9242H20.5917V24.0536L24.349 25.6824L30.2824 33.8117L22.155 27.8769L20.5266 24.1187H18.3977V22.176L16.3933 20.6271C11.582 16.9074 5.55375 19.3951 5.00008 22.8127V16.9104H11.582L10.069 15.7406H5.00304V15.7347Z" fill="#383635"/>
<path d="M216.997 300.814V308.026H209.787V302.955L208.618 301.442V308.026H202.717C206.134 307.472 208.618 301.442 204.902 296.63L203.354 294.625H201.408V292.495L197.651 290.867L191.718 282.737L199.845 288.672L201.473 292.43H203.602V294.373L205.607 295.922C210.418 299.642 216.446 297.154 217 293.736V299.639H210.418L211.931 300.808H216.997V300.814Z" fill="#383635"/>
<path d="M13.8647 289.517C12.6182 289.313 11.3569 290.047 10.9601 291.176C10.741 291.8 10.8062 292.508 11.1467 293.115C11.2 293.213 11.2917 293.272 11.3569 293.361C11.4605 293.518 11.573 293.66 11.7181 293.782C11.7714 293.826 11.8247 293.853 11.8809 293.891C12.0616 294.016 12.254 294.107 12.4701 294.167C12.5146 294.179 12.5501 294.217 12.5945 294.226L12.6004 294.193C12.7307 294.22 12.8551 294.273 12.9912 294.273C13.5153 294.273 13.9861 294.06 14.3444 293.731C14.3384 293.746 14.3384 293.764 14.3295 293.779C13.8913 294.652 12.9409 295.265 11.9668 295.304C10.9542 295.36 9.99492 294.806 9.48862 293.968C9.05634 293.252 8.855 292.295 8.855 290.962V274.662V25.5881C8.855 24.2525 9.05634 23.2989 9.48862 22.5792C9.99492 21.7441 10.9513 21.1873 11.9668 21.2436C12.9409 21.2821 13.8913 21.8951 14.3295 22.7688C14.3384 22.7836 14.3355 22.8013 14.3444 22.8162C13.9861 22.4845 13.5183 22.2742 12.9912 22.2742C12.8521 22.2742 12.7307 22.3275 12.6004 22.3542L12.5945 22.3216C12.5501 22.3305 12.5146 22.369 12.4701 22.3808C12.254 22.44 12.0616 22.5318 11.8809 22.6562C11.8247 22.6947 11.7685 22.7243 11.7181 22.7658C11.576 22.8872 11.4635 23.0294 11.3569 23.1863C11.2917 23.2752 11.2 23.3344 11.1467 23.4321C10.8091 24.0393 10.741 24.7471 10.9601 25.3719C11.3569 26.5003 12.6182 27.2347 13.8647 27.0304C14.9484 26.8556 15.8869 26.0264 16.257 24.9218C16.5679 23.9889 16.4702 22.902 15.9846 21.9395C15.2415 20.4588 13.6959 19.4608 12.0408 19.3956C10.3946 19.3245 8.7662 20.2011 7.91052 21.6227C7.10222 22.9583 7.00746 24.5249 7.00746 25.5852V274.656V290.956C7.00746 292.017 7.10222 293.583 7.91052 294.919C8.7662 296.337 10.3946 297.217 12.0408 297.146C13.693 297.081 15.2415 296.083 15.9846 294.602C16.4702 293.64 16.5679 292.553 16.257 291.62C15.8869 290.521 14.9484 289.692 13.8647 289.517Z" fill="#383635"/>
<path d="M203.898 305.121C202.56 305.926 200.994 306.021 199.937 306.021H22.0602C21.0002 306.021 19.4369 305.926 18.0987 305.121C16.6804 304.262 15.807 302.639 15.8751 300.987C15.9402 299.334 16.938 297.785 18.4155 297.042C19.0106 296.743 19.6501 296.592 20.2748 296.592C20.6627 296.592 21.0417 296.651 21.397 296.769C22.5014 297.137 23.3304 298.076 23.5051 299.162C23.7035 300.394 22.9751 301.671 21.8441 302.068C21.2223 302.29 20.5147 302.222 19.9077 301.881C19.81 301.828 19.7478 301.736 19.662 301.671C19.505 301.567 19.3629 301.455 19.2445 301.312C19.2001 301.259 19.1705 301.203 19.1349 301.15C19.0106 300.969 18.9188 300.776 18.8596 300.56C18.8478 300.516 18.8122 300.48 18.8004 300.436L18.8329 300.43C18.8063 300.3 18.753 300.175 18.753 300.036C18.753 299.512 18.9662 299.041 19.2948 298.683C19.28 298.689 19.2623 298.689 19.2474 298.697C18.374 299.136 17.7611 300.086 17.7226 301.061C17.6841 302.035 18.22 303.033 19.058 303.539C19.7745 303.972 20.7308 304.173 22.0632 304.173H199.94C201.272 304.173 202.228 303.972 202.945 303.539C203.783 303.033 204.319 302.038 204.28 301.061C204.242 300.086 203.629 299.136 202.756 298.697C202.741 298.689 202.723 298.692 202.708 298.683C203.04 299.041 203.25 299.509 203.25 300.036C203.25 300.175 203.197 300.297 203.17 300.43L203.203 300.436C203.194 300.48 203.158 300.516 203.143 300.56C203.084 300.776 202.992 300.969 202.868 301.15C202.829 301.206 202.8 301.262 202.758 301.312C202.637 301.455 202.495 301.567 202.341 301.671C202.252 301.736 202.193 301.828 202.095 301.881C201.488 302.219 200.781 302.287 200.159 302.068C199.031 301.671 198.299 300.394 198.498 299.162C198.673 298.078 199.502 297.14 200.606 296.769C200.964 296.651 201.343 296.592 201.728 296.592C202.35 296.592 202.992 296.743 203.585 297.042C205.062 297.785 206.063 299.334 206.128 300.987C206.19 302.639 205.317 304.262 203.898 305.121Z" fill="#383635"/>
<path d="M5.00304 300.814V308.026H12.2126V302.955L13.3821 301.442V308.026H19.283C15.8662 307.472 13.3821 301.442 17.1009 296.63L18.6494 294.625H20.5917V292.495L24.349 290.867L30.2824 282.737L22.155 288.672L20.5266 292.43H18.3977V294.373L16.3933 295.922C11.582 299.642 5.55375 297.154 5.00008 293.736V299.639H11.582L10.069 300.808H5.00304V300.814Z" fill="#383635"/>
<path d="M214.089 21.6251C213.234 20.2065 211.605 19.327 209.959 19.3981C208.307 19.4632 206.758 20.4612 206.015 21.942C205.533 22.9045 205.432 23.9913 205.743 24.9242C206.11 26.0289 207.052 26.8551 208.135 27.0328C209.382 27.2371 210.643 26.5027 211.04 25.3744C211.259 24.7495 211.194 24.0417 210.853 23.4346C210.8 23.3368 210.708 23.2776 210.643 23.1888C210.539 23.0318 210.427 22.8897 210.282 22.7682C210.229 22.7268 210.175 22.6942 210.119 22.6587C209.938 22.5343 209.746 22.4425 209.53 22.3832C209.485 22.3714 209.45 22.3329 209.405 22.324L209.4 22.3566C209.269 22.3299 209.145 22.2766 209.006 22.2766C208.482 22.2766 208.011 22.4899 207.653 22.8186C207.659 22.8038 207.659 22.786 207.667 22.7712C208.106 21.8976 209.056 21.2845 210.03 21.246C211.043 21.1898 212.002 21.7436 212.508 22.5817C212.941 23.2983 213.142 24.2549 213.142 25.5906V290.962C213.142 292.297 212.941 293.251 212.508 293.968C212.002 294.803 211.046 295.36 210.03 295.303C209.056 295.265 208.106 294.652 207.667 293.778C207.659 293.763 207.662 293.749 207.653 293.731C208.011 294.06 208.479 294.273 209.006 294.273C209.145 294.273 209.266 294.22 209.4 294.193L209.405 294.225C209.45 294.217 209.485 294.178 209.53 294.166C209.746 294.107 209.938 294.015 210.119 293.891C210.175 293.852 210.232 293.823 210.282 293.781C210.424 293.66 210.536 293.518 210.643 293.361C210.708 293.272 210.8 293.213 210.853 293.115C211.191 292.508 211.259 291.8 211.04 291.175C210.643 290.047 209.382 289.312 208.135 289.517C207.052 289.691 206.113 290.521 205.743 291.625C205.432 292.558 205.53 293.645 206.015 294.607C206.758 296.088 208.307 297.086 209.959 297.151C211.605 297.222 213.234 296.346 214.089 294.924C214.898 293.589 214.993 292.022 214.993 290.962V25.5876C214.993 24.5274 214.898 22.9607 214.089 21.6251Z" fill="#383635"/>
<path d="M210.371 287.388L210.824 287.624V28.9285L210.371 29.1654C208.636 30.0746 206.513 29.9798 204.875 28.9196L204.727 28.8219L188.23 37.3214L196.73 20.8199L196.633 20.6718C196.058 19.7863 195.756 18.7646 195.759 17.7162C195.759 16.8278 195.969 15.9719 196.387 15.1723L196.624 14.7222H25.3822L25.6191 15.1723C26.0366 15.9719 26.2468 16.8248 26.2468 17.7162C26.2468 18.7646 25.9448 19.7863 25.3734 20.6718L25.2756 20.8199L33.7761 37.3214L17.2785 28.8219L17.1304 28.9196C15.4902 29.9828 13.3702 30.0746 11.6352 29.1654L11.1822 28.9285V287.624L11.6352 287.388C13.3702 286.478 15.4931 286.573 17.1304 287.633L17.2785 287.731L33.7761 279.232L25.2756 295.733L25.3734 295.881C25.9478 296.767 26.2498 297.788 26.2468 298.837C26.2468 299.725 26.0366 300.581 25.6191 301.381L25.3822 301.831H196.624L196.387 301.381C195.969 300.581 195.759 299.728 195.759 298.837C195.759 297.788 196.061 296.767 196.633 295.881L196.73 295.733L188.23 279.232L204.727 287.731L204.875 287.633C206.513 286.57 208.636 286.478 210.371 287.388ZM204.692 287.02L186.797 277.798L196.017 295.698C195.442 296.645 195.137 297.726 195.137 298.834C195.137 299.657 195.3 300.454 195.623 301.212H26.3741C26.6969 300.457 26.8597 299.657 26.8597 298.834C26.8597 297.726 26.5577 296.645 25.9833 295.698L35.2032 277.798L17.3081 287.02C15.653 286.016 13.5686 285.871 11.7951 286.626V29.9235C13.5686 30.6787 15.653 30.5336 17.3081 29.5297L35.2032 38.7518L25.9833 20.8525C26.5577 19.9048 26.8627 18.8238 26.8597 17.7162C26.8597 16.8929 26.6969 16.0963 26.3741 15.3382H195.623C195.3 16.0933 195.137 16.8929 195.137 17.7162C195.137 18.8238 195.439 19.9048 196.017 20.8525L186.797 38.7518L204.692 29.5297C206.347 30.5336 208.431 30.6787 210.205 29.9235V286.626C208.431 285.871 206.347 286.016 204.692 287.02Z" fill="#383635"/>
</svg>
