<svg width="222" height="316" viewBox="0 0 222 316" fill="none" xmlns="http://www.w3.org/2000/svg">
<path d="M215.602 24.3462C214.21 24.3462 212.87 24.136 211.608 23.7496V14.7044H202.563C202.177 13.4374 201.966 12.0965 201.966 10.7102V9.3125H126.991V12.1079H199.228C199.302 12.9942 199.455 13.8635 199.665 14.7044H119.707C116.128 14.7044 113.156 17.4259 112.946 20.8974C112.827 22.8974 113.6 24.8178 115.071 26.17C116.543 27.5222 118.531 28.1302 120.525 27.8347C123.02 27.4654 125.082 25.67 125.826 23.3121H189.239C189.393 23.5508 189.66 23.7098 189.967 23.7098C190.063 23.7098 190.16 23.6871 190.245 23.6587C190.62 23.9542 191.097 24.1303 191.614 24.1303C192.131 24.1303 192.603 23.9542 192.984 23.6587C193.069 23.6871 193.166 23.7098 193.262 23.7098C193.535 23.7098 193.773 23.5792 193.933 23.386C198.063 24.4144 200.052 21.9144 200.052 21.9144C200.052 21.9144 198.063 19.4088 193.933 20.4429C193.773 20.244 193.529 20.119 193.262 20.119C193.166 20.119 193.069 20.1418 192.984 20.1702C192.603 19.8747 192.131 19.6986 191.614 19.6986C191.097 19.6986 190.62 19.8747 190.245 20.1702C190.154 20.1418 190.063 20.119 189.967 20.119C189.66 20.119 189.393 20.2781 189.239 20.5167H126.082C126.048 20.2213 125.997 19.9259 125.923 19.6361C125.73 18.8861 124.963 18.4429 124.219 18.6361C123.469 18.8293 123.025 19.5963 123.219 20.3406C123.349 20.8406 123.378 21.369 123.298 21.8974C123.059 23.5223 121.753 24.8291 120.122 25.0678C118.963 25.2382 117.815 24.8859 116.963 24.1076C116.111 23.3292 115.668 22.2156 115.736 21.0622C115.855 19.0622 117.599 17.4998 119.702 17.4998H200.637C202.285 21.1076 205.194 24.0223 208.807 25.6643V289.504C205.233 291.157 202.347 294.055 200.711 297.634H119.702C117.599 297.634 115.855 296.066 115.736 294.072C115.668 292.919 116.111 291.805 116.963 291.027C117.81 290.248 118.963 289.896 120.122 290.066C121.753 290.305 123.059 291.606 123.298 293.237C123.378 293.765 123.349 294.293 123.219 294.793C123.025 295.543 123.469 296.305 124.219 296.498C124.969 296.697 125.73 296.248 125.923 295.498C125.997 295.208 126.048 294.913 126.082 294.617H189.239C189.393 294.856 189.66 295.015 189.967 295.015C190.063 295.015 190.16 294.992 190.245 294.964C190.62 295.259 191.097 295.435 191.614 295.435C192.131 295.435 192.603 295.259 192.984 294.964C193.069 294.992 193.166 295.015 193.262 295.015C193.535 295.015 193.773 294.884 193.933 294.691C198.063 295.72 200.052 293.22 200.052 293.22C200.052 293.22 198.063 290.714 193.933 291.748C193.773 291.549 193.529 291.424 193.262 291.424C193.166 291.424 193.069 291.447 192.984 291.475C192.603 291.18 192.131 291.004 191.614 291.004C191.097 291.004 190.62 291.18 190.245 291.475C190.154 291.447 190.063 291.424 189.967 291.424C189.66 291.424 189.393 291.583 189.239 291.822H125.832C125.082 289.464 123.025 287.663 120.531 287.299C118.537 287.004 116.548 287.612 115.077 288.964C113.605 290.316 112.832 292.237 112.952 294.237C113.162 297.708 116.133 300.43 119.713 300.43H199.739C199.529 301.271 199.376 302.14 199.302 303.026H126.991V305.822H202.035V304.424C202.035 303.032 202.245 301.691 202.637 300.43H211.608V291.413C212.875 291.015 214.216 290.799 215.608 290.794L217 290.788V24.3462H215.602ZM203.79 17.5055H208.813V22.5281C206.728 21.3235 204.989 19.585 203.79 17.5055ZM208.813 297.64H203.864C205.052 295.583 206.762 293.862 208.813 292.663V297.64ZM214.205 288.061C213.318 288.14 212.449 288.294 211.608 288.51V26.6473C212.449 26.8575 213.318 27.0109 214.205 27.0847V288.061Z" fill="white"/>
<path d="M22.3234 300.435H102.264C105.844 300.435 108.815 297.714 109.026 294.242C109.145 292.242 108.372 290.322 106.901 288.97C105.429 287.617 103.441 287.01 101.441 287.305C98.9463 287.669 96.8839 289.47 96.1396 291.828H32.7266C32.5731 291.589 32.3061 291.43 31.9993 291.43C31.9027 291.43 31.8061 291.447 31.7209 291.481C31.3402 291.186 30.8686 291.009 30.3516 291.009C29.8346 291.009 29.3573 291.186 28.9824 291.481C28.8914 291.453 28.8005 291.43 28.704 291.43C28.4312 291.43 28.1926 291.561 28.0335 291.754C23.9029 290.725 21.9143 293.225 21.9143 293.225C21.9143 293.225 23.9029 295.731 28.0335 294.697C28.1926 294.896 28.4312 295.021 28.704 295.021C28.8005 295.021 28.8971 295.004 28.9824 294.97C29.3573 295.265 29.8346 295.441 30.3516 295.441C30.8686 295.441 31.3459 295.265 31.7209 294.97C31.8061 294.998 31.9027 295.021 31.9993 295.021C32.3061 295.021 32.5731 294.862 32.7266 294.623H95.884C95.918 294.918 95.9691 295.214 96.043 295.504C96.2419 296.254 97.0032 296.697 97.7475 296.504C98.4975 296.31 98.9406 295.543 98.7475 294.799C98.6168 294.299 98.5884 293.771 98.6679 293.242C98.9122 291.617 100.213 290.311 101.844 290.072C103.003 289.902 104.156 290.248 105.003 291.032C105.855 291.811 106.298 292.918 106.23 294.078C106.111 296.077 104.367 297.64 102.264 297.64H21.3405C19.6928 294.026 16.7724 291.112 13.1589 289.47V25.6359C16.7383 23.9826 19.6246 21.0849 21.2666 17.4998H102.264C104.367 17.4998 106.111 19.0679 106.23 21.0622C106.298 22.2156 105.855 23.3292 105.003 24.1076C104.156 24.8859 103.003 25.2382 101.844 25.0678C100.213 24.8291 98.9065 23.5223 98.6679 21.8974C98.5884 21.369 98.6168 20.8406 98.7475 20.3406C98.9406 19.5906 98.4975 18.8293 97.7475 18.6361C96.9975 18.4429 96.2362 18.8861 96.043 19.6361C95.9691 19.9258 95.918 20.2213 95.884 20.5167H32.7266C32.5731 20.2781 32.3061 20.119 31.9993 20.119C31.9027 20.119 31.8061 20.1361 31.7209 20.1702C31.3402 19.8747 30.8686 19.6986 30.3516 19.6986C29.8346 19.6986 29.3573 19.8747 28.9824 20.1702C28.8914 20.1418 28.8005 20.119 28.704 20.119C28.4312 20.119 28.1926 20.2497 28.0335 20.4429C23.9029 19.4145 21.9143 21.9144 21.9143 21.9144C21.9143 21.9144 23.9029 24.42 28.0335 23.386C28.1926 23.5848 28.4312 23.7098 28.704 23.7098C28.8005 23.7098 28.8971 23.6928 28.9824 23.6587C29.3573 23.9542 29.8346 24.1303 30.3516 24.1303C30.8686 24.1303 31.3459 23.9542 31.7209 23.6587C31.8061 23.6871 31.9027 23.7098 31.9993 23.7098C32.3061 23.7098 32.5731 23.5508 32.7266 23.3121H96.1396C96.8896 25.67 98.9463 27.4711 101.441 27.8347C103.435 28.1302 105.423 27.5222 106.895 26.17C108.367 24.8178 109.139 22.8974 109.02 20.8974C108.81 17.4259 105.838 14.7044 102.259 14.7044H22.2552C22.4654 13.8635 22.6189 12.9942 22.6927 12.1079H95.0203V9.3125H19.9542V10.7102C19.9542 12.0965 19.7439 13.4431 19.3519 14.7044H10.3635V23.7269C9.10788 24.1189 7.77269 24.3348 6.39205 24.3462L5 24.3519V290.794H6.39774C7.77838 290.794 9.10788 291.004 10.3635 291.39V300.435H19.4201C19.8064 301.702 20.0167 303.043 20.0167 304.43V305.827H95.0146V303.032H22.7552C22.687 302.145 22.5336 301.276 22.3234 300.435ZM13.1645 17.4998H18.1247C16.9316 19.5622 15.2156 21.2838 13.1645 22.4826V17.4998ZM7.80109 288.055V27.0734C8.67607 26.9938 9.534 26.8404 10.3635 26.6302V288.487C9.534 288.282 8.67607 288.135 7.80109 288.055ZM13.1645 297.64V292.612C15.2554 293.816 16.9941 295.555 18.1986 297.64H13.1645Z" fill="white"/>
<path d="M110.867 15.9996C110.929 16.0507 110.969 16.0791 110.986 16.0905C110.992 16.0905 111.003 16.1075 111.003 16.1075C111.003 16.1075 111.02 16.0962 111.02 16.0905C111.037 16.0791 111.077 16.0451 111.139 15.9996C112.06 15.3008 117.895 11.0622 122.843 11.9543C122.843 11.9543 122.082 9.57931 119.105 9.43727C119.105 9.43727 118.571 7.67027 115.633 7.93731C115.213 4.05674 110.997 1 110.997 1C110.997 1 106.781 4.05674 106.361 7.93731C103.424 7.67027 102.889 9.43727 102.889 9.43727C99.9123 9.57931 99.1509 11.9543 99.1509 11.9543C104.111 11.0565 109.946 15.3008 110.867 15.9996Z" fill="white"/>
<path d="M111.145 299.139C111.083 299.088 111.043 299.06 111.026 299.048L111.009 299.031C111.009 299.031 110.992 299.043 110.992 299.048C110.975 299.06 110.935 299.094 110.872 299.139C109.952 299.838 104.117 304.077 99.168 303.185C99.168 303.185 99.9294 305.559 102.907 305.702C102.907 305.702 103.441 307.469 106.378 307.201C106.799 311.082 111.014 314.139 111.014 314.139C111.014 314.139 115.23 311.082 115.651 307.201C118.588 307.469 119.122 305.702 119.122 305.702C122.099 305.559 122.861 303.185 122.861 303.185C117.895 304.082 112.06 299.838 111.145 299.139Z" fill="white"/>
</svg>
