<svg width="222" height="321" viewBox="0 0 222 321" fill="none" xmlns="http://www.w3.org/2000/svg">
<g filter="url(#filter0_d_225_2827)">
<path d="M180.8 312.5H41.1382C38.5524 312.5 36.1224 311.472 34.2843 309.634C32.3528 307.672 31.2313 304.931 31.2624 302.097V295.089C31.2624 289.981 27.1814 285.838 22.1656 285.838H15.2496C12.4457 285.869 9.89112 284.81 7.92844 282.879C6.02808 281.01 5 278.487 5 275.809V39.6602C5 36.9816 6.02808 34.4587 7.92844 32.5898C9.85996 30.6899 12.4145 29.6308 15.1872 29.6308C15.2183 29.6308 15.2495 29.6308 15.2806 29.6308H22.1967C27.2125 29.6308 31.2936 25.4882 31.2936 20.3801V13.372C31.2625 10.5376 32.3528 7.79661 34.2843 5.86549C36.1224 3.99666 38.5836 3 41.1693 3H180.831C183.416 3 185.878 4.0278 187.716 5.86549C189.647 7.82776 190.769 10.5688 190.738 13.4032L190.333 13.5277H190.738V20.3801C190.738 25.4882 194.819 29.6308 199.834 29.6308H206.751C206.782 29.6308 206.813 29.6308 206.844 29.6308C209.586 29.6308 212.14 30.6899 214.072 32.5898C215.972 34.4587 217 36.9816 217 39.6602V275.809C217 278.487 215.972 281.01 214.072 282.879C212.14 284.779 209.586 285.838 206.813 285.838C206.782 285.838 206.751 285.838 206.719 285.838H199.803C194.788 285.838 190.706 289.981 190.706 295.089V301.972L190.301 302.097H190.706C190.738 304.931 189.616 307.672 187.685 309.634C185.847 311.472 183.385 312.5 180.8 312.5ZM15.2184 285.028H22.1345C27.5863 285.028 32.0413 289.545 32.0413 295.058V302.066C32.0101 304.713 33.0383 307.236 34.8452 309.043C36.5275 310.725 38.7705 311.659 41.1382 311.659H180.8C183.167 311.659 185.41 310.725 187.124 309.012C188.9 307.205 189.928 304.682 189.896 302.066V295.026C189.896 289.482 194.351 284.997 199.803 284.997H206.719C206.751 284.997 206.782 284.997 206.782 284.997C209.336 284.997 211.704 284.031 213.48 282.256C215.224 280.543 216.159 278.207 216.159 275.746V39.598C216.159 37.1373 215.193 34.8012 213.449 33.0881C211.673 31.3127 209.243 30.3783 206.719 30.3783H199.803C194.351 30.3783 189.896 25.862 189.896 20.3178V13.3097C189.928 10.6934 188.9 8.13922 187.124 6.33268C185.441 4.61958 183.198 3.68524 180.831 3.68524H41.1693C38.7705 3.68524 36.5275 4.61958 34.8452 6.33268C33.0694 8.13922 32.0413 10.6622 32.0725 13.2785V20.3801C32.0725 25.9243 27.6175 30.4407 22.1656 30.4407H15.2496C15.2184 30.4407 15.2183 30.4407 15.1872 30.4407C12.6326 30.4407 10.2649 31.4062 8.48918 33.1815C6.74458 34.8946 5.77884 37.2308 5.77884 39.6914V275.84C5.77884 278.3 6.74458 280.636 8.48918 282.35C10.2649 284.094 12.6327 285.059 15.1561 285.059C15.1872 285.028 15.1872 285.028 15.2184 285.028Z" fill="white"/>
<path d="M196.002 302.5H25.9352C20.4521 302.5 15.9972 298.046 15.9972 292.564L15.9969 24.0864C15.9969 18.6045 20.4519 14.1816 25.9349 14.1816H196.002C201.485 14.1816 205.909 18.6357 205.909 24.0864L205.909 292.564C205.909 298.046 201.454 302.5 196.002 302.5ZM25.9349 14.9603C20.9192 14.9603 16.8069 19.0406 16.8069 24.0864L16.8072 292.564C16.8072 297.61 20.8883 301.69 25.9352 301.69H196.002C201.049 301.69 205.13 297.61 205.13 292.564L205.13 24.0864C205.13 19.0406 201.049 14.9603 196.002 14.9603H25.9349Z" fill="white"/>
</g>
<defs>
<filter id="filter0_d_225_2827" x="-4" y="0" width="230" height="324" filterUnits="userSpaceOnUse" color-interpolation-filters="sRGB">
<feFlood flood-opacity="0" result="BackgroundImageFix"/>
<feColorMatrix in="SourceAlpha" type="matrix" values="0 0 0 0 0 0 0 0 0 0 0 0 0 0 0 0 0 0 127 0" result="hardAlpha"/>
<feOffset dy="4"/>
<feGaussianBlur stdDeviation="2"/>
<feComposite in2="hardAlpha" operator="out"/>
<feColorMatrix type="matrix" values="0 0 0 0 0 0 0 0 0 0 0 0 0 0 0 0 0 0 0.25 0"/>
<feBlend mode="normal" in2="BackgroundImageFix" result="effect1_dropShadow_225_2827"/>
<feBlend mode="normal" in="SourceGraphic" in2="effect1_dropShadow_225_2827" result="shape"/>
</filter>
</defs>
</svg>
