<svg width="222" height="316" viewBox="0 0 222 316" fill="none" xmlns="http://www.w3.org/2000/svg">
<path d="M210.743 311.5H11.2566C11.0261 311.5 10.8391 311.313 10.8391 311.082C10.8391 308.093 8.40638 305.66 5.41751 305.66C5.18698 305.66 5 305.473 5 305.242V11.258C5 11.0274 5.18698 10.8404 5.41751 10.8404C8.40638 10.8404 10.8391 8.40714 10.8391 5.41763C10.8391 5.18705 11.0261 5 11.2566 5H210.743C210.974 5 211.161 5.18705 211.161 5.41763C211.161 8.40714 213.594 10.8404 216.582 10.8404C216.813 10.8404 217 11.0274 217 11.258V305.244C217 305.474 216.813 305.661 216.582 305.661C213.594 305.661 211.161 308.094 211.161 311.084C211.159 311.315 210.974 311.5 210.743 311.5ZM11.6596 310.666H210.34C210.547 307.549 213.047 305.047 216.165 304.84V11.6611C213.049 11.4547 210.547 8.95377 210.34 5.83526H11.6596C11.4533 8.95216 8.9529 11.4547 5.83507 11.6611V304.84C8.9529 305.047 11.4533 307.548 11.6596 310.666Z" fill="white"/>
<path d="M192.124 29.882L192.162 29.395C192.281 27.8777 192.404 25.6638 192.522 23.524C192.639 21.3795 192.764 19.1623 192.883 17.6337C193.054 15.473 193.265 12.7818 194.685 10.7049C196.383 8.22334 199.712 7.03334 202.597 7.87183C205.404 8.68935 207.532 11.3531 207.738 14.262C210.648 14.4684 213.31 16.5969 214.127 19.4042C214.967 22.2905 213.777 25.6186 211.295 27.3182C209.217 28.7404 206.528 28.9516 204.367 29.1225C202.841 29.2435 200.624 29.366 198.48 29.4837C196.339 29.6014 194.127 29.724 192.609 29.8433L192.124 29.882ZM200.681 8.43619C198.614 8.43619 196.552 9.45527 195.373 11.1758C194.077 13.0704 193.884 15.5294 193.713 17.6998C193.594 19.2171 193.471 21.4311 193.354 23.5708C193.247 25.4977 193.138 27.4843 193.03 28.9758C194.521 28.8678 196.507 28.7581 198.433 28.6517C200.573 28.534 202.784 28.4114 204.303 28.2921C206.471 28.1212 208.93 27.9277 210.824 26.6297C213.017 25.1301 214.069 22.1905 213.326 19.638C212.588 17.1032 210.147 15.1957 207.51 15.0844L206.768 15.2344L206.915 14.491C206.807 11.853 204.9 9.41173 202.364 8.67322C201.816 8.51359 201.248 8.43619 200.681 8.43619Z" fill="white"/>
<path d="M206.184 36.643C204.432 36.643 202.693 35.7416 201.585 34.2404C200.516 32.7924 200.068 30.8542 200.355 28.9241L200.968 24.3399C200.998 24.1125 201.214 23.94 201.437 23.9819C201.664 24.0125 201.825 24.2221 201.795 24.4495L201.18 29.0386C200.926 30.7591 201.317 32.4699 202.256 33.7422C203.245 35.0837 204.874 35.8835 206.436 35.7997C208.056 35.7029 209.565 34.5726 210.026 33.1117C210.506 31.5879 209.784 29.7997 208.419 29.1241C207.726 28.7822 206.945 28.7467 206.333 29.0338C205.693 29.3321 205.27 30.0125 205.328 30.6478C205.385 31.2831 206.017 31.8475 206.583 31.8024C206.82 31.7717 207.011 31.9604 207.027 32.1893C207.044 32.4199 206.869 32.6183 206.641 32.6344C205.593 32.6924 204.595 31.8136 204.498 30.722C204.409 29.7336 205.019 28.7274 205.98 28.2775C206.818 27.8841 207.869 27.9211 208.79 28.3759C210.51 29.224 211.421 31.4605 210.821 33.3616C210.252 35.1676 208.469 36.5124 206.486 36.6317C206.384 36.6398 206.284 36.643 206.184 36.643Z" fill="white"/>
<path d="M196.879 36.428C196.08 36.428 195.288 36.191 194.622 35.7476C193.657 35.1042 192.923 33.9964 192.56 32.6307C192.244 31.4439 192.228 30.5844 192.207 29.3944C192.202 29.1639 192.386 28.9736 192.617 28.9688C192.62 28.9688 192.623 28.9688 192.625 28.9688C192.852 28.9688 193.038 29.151 193.042 29.3783C193.065 30.5506 193.079 31.3262 193.368 32.4162C193.679 33.5852 194.289 34.5221 195.087 35.0542C195.68 35.4493 196.4 35.6395 197.111 35.5863C198.438 35.4896 199.652 34.435 199.875 33.1837C200.103 31.897 199.235 30.5038 198.016 30.2007C197.189 29.9943 196.278 30.3087 195.859 30.9489C195.644 31.2746 195.57 31.7148 195.662 32.1292C195.744 32.4952 195.941 32.7903 196.218 32.9596C196.515 33.1418 196.929 33.1467 197.297 32.9725C197.622 32.8193 197.834 32.5629 197.875 32.2711C197.908 32.0421 198.125 31.8905 198.346 31.9163C198.574 31.9486 198.733 32.1598 198.701 32.3888C198.62 32.9564 198.227 33.4563 197.651 33.7288C197.032 34.0174 196.315 33.998 195.783 33.6723C195.311 33.3837 194.979 32.9016 194.848 32.3114C194.704 31.6712 194.819 31.0085 195.161 30.4893C195.778 29.5492 197.037 29.101 198.216 29.3912C199.867 29.8024 201 31.6051 200.693 33.3305C200.402 34.9671 198.886 36.2942 197.169 36.42C197.073 36.4248 196.976 36.428 196.879 36.428Z" fill="white"/>
<path d="M206.421 46.0355C205.725 46.0355 205.041 45.8727 204.448 45.5518C203.297 44.931 202.536 43.7248 202.509 42.4816C202.478 41.1594 203.321 39.8823 204.514 39.4454C205.344 39.1406 206.242 39.2599 206.863 39.7582C207.585 40.3371 207.793 41.4061 207.33 42.1398C207.073 42.5461 206.61 42.8074 206.094 42.8396C205.612 42.8751 205.185 42.6929 204.909 42.3559C204.762 42.1785 204.788 41.9157 204.965 41.7689C205.143 41.6222 205.406 41.648 205.552 41.8254C205.657 41.9527 205.842 42.0237 206.042 42.006C206.286 41.9914 206.515 41.8673 206.626 41.6915C206.861 41.319 206.729 40.7176 206.341 40.4064C205.954 40.0952 205.351 40.0258 204.803 40.2274C203.934 40.5451 203.321 41.4851 203.344 42.4607C203.365 43.3959 203.969 44.3424 204.846 44.8181C205.696 45.276 206.784 45.3276 207.758 44.9519C209.022 44.4666 209.994 43.2927 210.236 41.9608C210.479 40.6289 209.984 39.1874 208.975 38.286C207.862 37.2927 206.955 36.8267 205.733 36.6187C203.17 36.1849 199.504 36.1011 196.608 36.4091C196.383 36.4365 196.175 36.2672 196.15 36.0382C196.126 35.8092 196.292 35.6045 196.521 35.5803C199.486 35.2642 203.242 35.3529 205.871 35.7963C207.245 36.0285 208.306 36.5703 209.529 37.6636C210.75 38.7536 211.349 40.4999 211.056 42.1091C210.763 43.72 209.586 45.1406 208.057 45.7291C207.527 45.9339 206.969 46.0355 206.421 46.0355Z" fill="white"/>
<path d="M209.62 51.7909C208.996 51.7909 208.374 51.6232 207.842 51.2879C206.781 50.6155 206.168 49.3271 206.317 48.0823C206.491 46.623 207.646 45.4233 208.715 44.4139C208.883 44.2543 209.147 44.2639 209.304 44.4316C209.462 44.5993 209.454 44.8622 209.286 45.0202C208.324 45.9296 207.284 46.9987 207.142 48.1806C207.032 49.0981 207.503 50.0866 208.285 50.5816C209.067 51.075 210.16 51.0766 210.943 50.5848C211.346 50.33 211.625 49.9866 211.73 49.6141C211.836 49.2336 211.735 48.8079 211.48 48.5821C211.232 48.3628 210.816 48.3483 210.606 48.5515C210.482 48.6708 210.432 48.8675 210.49 49.0062C210.54 49.1255 210.695 49.2126 210.8 49.1787C211.024 49.1126 211.253 49.2416 211.317 49.4625C211.382 49.6834 211.254 49.9156 211.034 49.9801C210.519 50.1269 209.931 49.835 209.721 49.3255C209.534 48.8724 209.66 48.308 210.028 47.9517C210.548 47.4486 211.467 47.4518 212.035 47.9597C212.525 48.3967 212.726 49.1529 212.533 49.8398C212.373 50.4123 211.965 50.9267 211.388 51.2911C210.861 51.6232 210.24 51.7909 209.62 51.7909Z" fill="white"/>
<path d="M191.94 21.7373C190.407 21.7373 188.93 21.2794 187.768 20.4215C186.181 19.2509 185.264 17.3723 185.374 15.5212C185.493 13.5363 186.836 11.7529 188.643 11.1837C190.544 10.5839 192.778 11.4981 193.628 13.2154C194.081 14.1345 194.118 15.1858 193.726 16.0259C193.276 16.9886 192.269 17.5884 191.282 17.5078C190.192 17.4094 189.298 16.4081 189.37 15.3648C189.386 15.1358 189.565 14.9617 189.815 14.9778C190.044 14.994 190.218 15.1923 190.202 15.4229C190.162 16.0098 190.721 16.6193 191.356 16.6774C191.999 16.7274 192.67 16.3129 192.97 15.6728C193.257 15.0601 193.223 14.2796 192.88 13.5863C192.204 12.2189 190.413 11.4997 188.893 11.9786C187.432 12.4398 186.302 13.9507 186.206 15.5712C186.114 17.1192 186.921 18.7607 188.263 19.7507C189.535 20.6892 191.243 21.0826 192.96 20.8279L197.555 20.2119C197.781 20.17 197.993 20.3409 198.024 20.5699C198.055 20.7972 197.895 21.0085 197.666 21.0375L193.078 21.6518C192.698 21.7099 192.317 21.7373 191.94 21.7373Z" fill="white"/>
<path d="M192.622 29.8C192.618 29.8 192.617 29.8 192.614 29.8C191.424 29.7774 190.565 29.7613 189.38 29.4469C188.013 29.0841 186.905 28.3504 186.262 27.3845C185.764 26.6379 185.527 25.7333 185.591 24.8384C185.715 23.1195 187.044 21.6038 188.68 21.312C190.405 20.9991 192.209 22.1408 192.618 23.7903C192.912 24.9706 192.46 26.2268 191.521 26.8476C191.003 27.191 190.34 27.3023 189.7 27.1604C189.112 27.0282 188.628 26.696 188.34 26.2251C188.014 25.6914 187.993 24.9755 188.285 24.3563C188.556 23.779 189.056 23.3872 189.623 23.3066C189.844 23.2776 190.062 23.4324 190.095 23.6613C190.128 23.8887 189.97 24.0999 189.741 24.1338C189.449 24.1757 189.193 24.3869 189.04 24.7127C188.865 25.0803 188.87 25.4947 189.052 25.7914C189.222 26.0687 189.517 26.2671 189.883 26.3477C190.297 26.438 190.737 26.367 191.061 26.1526C191.701 25.7301 192.015 24.8223 191.809 23.9935C191.506 22.7745 190.107 21.907 188.827 22.1343C187.574 22.3568 186.52 23.5726 186.423 24.8997C186.371 25.6108 186.56 26.33 186.955 26.9233C187.485 27.7215 188.422 28.331 189.592 28.6422C190.681 28.9309 191.456 28.9454 192.628 28.968C192.857 28.9728 193.041 29.1631 193.038 29.3936C193.034 29.6194 192.847 29.8 192.622 29.8Z" fill="white"/>
<path d="M186.012 25.8601C185.996 25.8601 185.981 25.8601 185.967 25.8568C185.738 25.8327 185.572 25.6279 185.596 25.3989C185.904 22.5061 185.82 18.8378 185.386 16.2723C185.182 15.0533 184.714 14.1439 183.719 13.0297C182.82 12.0203 181.375 11.5236 180.045 11.7687C178.714 12.0122 177.54 12.9845 177.055 14.2471C176.679 15.221 176.729 16.3094 177.189 17.1592C177.664 18.0364 178.611 18.6394 179.546 18.662C180.539 18.7168 181.461 18.0686 181.778 17.2027C181.98 16.6529 181.909 16.0498 181.599 15.6644C181.288 15.2758 180.69 15.1436 180.315 15.3806C180.139 15.4919 180.016 15.7209 180 15.9627C179.987 16.1708 180.053 16.3497 180.181 16.4545C180.358 16.6013 180.384 16.8641 180.237 17.0415C180.091 17.2189 179.828 17.2447 179.65 17.0979C179.315 16.8206 179.139 16.3884 179.168 15.9111C179.201 15.3952 179.462 14.9324 179.868 14.676C180.6 14.21 181.67 14.4212 182.249 15.142C182.747 15.7612 182.867 16.6609 182.562 17.4914C182.125 18.6846 180.861 19.515 179.526 19.4989C178.283 19.4699 177.077 18.7072 176.457 17.5575C175.883 16.4965 175.817 15.1484 176.278 13.9504C176.865 12.4218 178.285 11.2447 179.897 10.9496C181.506 10.6577 183.252 11.2543 184.342 12.4766C185.265 13.5134 185.938 14.5325 186.209 16.1353C186.653 18.7684 186.741 22.5271 186.425 25.4876C186.404 25.702 186.223 25.8601 186.012 25.8601Z" fill="white"/>
<path d="M173.558 15.7079C172.435 15.7079 171.329 15.1162 170.726 14.1616C170.055 13.1006 170.054 11.6752 170.723 10.6109C171.085 10.0337 171.601 9.62733 172.173 9.46609C172.862 9.2742 173.616 9.47415 174.055 9.96434C174.561 10.5335 174.564 11.4526 174.061 11.9719C173.707 12.3395 173.142 12.4653 172.688 12.2782C172.178 12.067 171.885 11.4784 172.033 10.9657C172.098 10.7448 172.325 10.619 172.551 10.6819C172.772 10.7464 172.899 10.9786 172.834 11.1995C172.802 11.3059 172.888 11.4591 173.007 11.5075C173.147 11.5655 173.342 11.5155 173.46 11.3914C173.665 11.1801 173.65 10.7641 173.431 10.5174C173.204 10.2643 172.78 10.1611 172.398 10.2675C172.025 10.3723 171.68 10.6513 171.427 11.0544C170.935 11.838 170.935 12.9313 171.432 13.7133C171.925 14.4954 172.904 14.9614 173.832 14.8566C175.014 14.7163 176.081 13.6746 176.99 12.712C177.147 12.5443 177.411 12.5362 177.579 12.6942C177.747 12.8523 177.755 13.1167 177.597 13.2828C176.587 14.3535 175.388 15.5096 173.931 15.6821C173.807 15.7015 173.682 15.7079 173.558 15.7079Z" fill="white"/>
<path d="M197.106 24.8977C197.239 22.7515 197.339 18.7526 197.472 16.608C197.574 14.9617 197.703 13.2315 198.612 11.8835C199.707 10.2613 201.919 9.50187 203.837 10.092C205.757 10.6822 207.239 12.5736 207.339 14.5634L207.44 14.665C209.429 14.765 211.32 16.2468 211.91 18.1673C212.5 20.0877 211.743 22.2984 210.119 23.3933C208.772 24.3027 207.042 24.4317 205.396 24.5333C203.25 24.6639 199.252 24.7655 197.106 24.8977Z" fill="white"/>
<path d="M29.8749 29.8822L29.388 29.8435C27.8694 29.7242 25.6576 29.6016 23.5167 29.4839C21.3726 29.3646 19.1559 29.242 17.6292 29.1227C15.469 28.9518 12.78 28.7406 10.702 27.3184C8.2193 25.6204 7.02794 22.2923 7.86946 19.4044C8.68681 16.5971 11.35 14.4686 14.2583 14.2622C14.4647 11.3533 16.591 8.68952 19.3993 7.872C22.2818 7.03352 25.6141 8.22191 27.3116 10.7051C28.7319 12.7836 28.9431 15.4732 29.114 17.6339C29.2349 19.1609 29.3574 21.378 29.4751 23.5242C29.5928 25.664 29.7153 27.8779 29.8346 29.3952L29.8749 29.8822ZM14.4872 15.0846C11.8514 15.1942 9.40903 17.1018 8.67068 19.6382C7.92749 22.1891 8.98021 25.1302 11.1727 26.6298C13.0669 27.9263 15.5254 28.1214 17.6937 28.2923C19.2107 28.4116 21.4226 28.5342 23.5635 28.6519C25.4899 28.7583 27.4777 28.8679 28.9673 28.976C28.8593 27.4844 28.7496 25.4995 28.6432 23.571C28.5256 21.4312 28.403 19.2173 28.2837 17.7C28.1129 15.5312 27.9194 13.0706 26.6232 11.176C25.124 8.98299 22.1883 7.93005 19.6331 8.67501C17.0972 9.41352 15.1901 11.8548 15.0821 14.4928L15.2288 15.2361L14.4872 15.0846Z" fill="white"/>
<path d="M15.8155 36.6434C15.7156 36.6434 15.6156 36.6402 15.5157 36.6338C13.5312 36.5144 11.7481 35.1696 11.1791 33.3637C10.581 31.4626 11.4918 29.2277 13.2103 28.3779C14.1293 27.9248 15.1803 27.8877 16.0203 28.2796C16.9811 28.7294 17.5905 29.7356 17.5018 30.7241C17.4034 31.8141 16.3943 32.6977 15.3593 32.6365C15.1304 32.6203 14.9563 32.422 14.9724 32.1914C14.9885 31.9624 15.1723 31.7754 15.4173 31.8044C15.9864 31.8463 16.6135 31.2852 16.6716 30.6499C16.728 30.0146 16.3072 29.3357 15.6672 29.0358C15.0562 28.7488 14.2744 28.7827 13.5811 29.1261C12.2157 29.8001 11.495 31.5883 11.9738 33.1137C12.4333 34.5746 13.9438 35.705 15.564 35.8017C17.1004 35.8872 18.7528 35.0858 19.7427 33.7442C20.6809 32.472 21.0743 30.7595 20.8195 29.0455L20.2037 24.45C20.1731 24.2226 20.3327 24.0114 20.5616 23.9823C20.7857 23.9388 21.0001 24.1113 21.0291 24.3403L21.6433 28.9294C21.9287 30.8531 21.4789 32.7913 20.4117 34.2392C19.3074 35.7421 17.5679 36.6434 15.8155 36.6434Z" fill="white"/>
<path d="M25.1208 36.4285C25.024 36.4285 24.9273 36.4253 24.8322 36.4188C23.1153 36.2947 21.5983 34.966 21.3065 33.3294C21.0002 31.604 22.1351 29.7997 23.7843 29.3901C24.9676 29.0999 26.2219 29.5481 26.8409 30.4882C27.1827 31.0058 27.2971 31.6701 27.1537 32.3103C27.0231 32.8988 26.691 33.3826 26.2186 33.6712C25.6866 33.9985 24.9692 34.0179 24.3518 33.7276C23.7746 33.4551 23.3829 32.9553 23.3023 32.3877C23.27 32.1603 23.4281 31.9491 23.657 31.9152C23.8795 31.8894 24.0971 32.041 24.1293 32.27C24.1712 32.5618 24.3824 32.8182 24.7081 32.9714C25.0757 33.1455 25.4883 33.1407 25.785 32.9585C26.0623 32.7892 26.2605 32.4941 26.3411 32.1281C26.433 31.7137 26.3605 31.2735 26.1461 30.9477C25.7253 30.3092 24.8225 29.9932 23.9874 30.1996C22.7687 30.5027 21.8998 31.8959 22.1287 33.1826C22.3512 34.4339 23.5667 35.4901 24.8935 35.5852C25.6044 35.632 26.3234 35.4481 26.9167 35.0531C27.7147 34.5226 28.324 33.5857 28.6352 32.4151C28.9238 31.3267 28.9383 30.5511 28.9608 29.3788C28.9657 29.1514 29.1511 28.9692 29.3784 28.9692C29.3816 28.9692 29.3832 28.9692 29.3864 28.9692C29.6153 28.9741 29.7991 29.1643 29.7959 29.3949C29.7733 30.5849 29.7572 31.4444 29.4429 32.6295C29.0801 33.9969 28.3466 35.1047 27.381 35.7481C26.7103 36.1915 25.9188 36.4285 25.1208 36.4285Z" fill="white"/>
<path d="M15.5786 46.0357C15.0288 46.0357 14.4727 45.9341 13.9455 45.7326C12.4172 45.144 11.2404 43.7234 10.9454 42.1126C10.6519 40.5017 11.25 38.757 12.472 37.667C13.6972 36.5737 14.7564 36.0336 16.1299 35.7998C18.7593 35.3563 22.5171 35.2676 25.4802 35.5837C25.7091 35.6079 25.8752 35.8127 25.851 36.0416C25.8268 36.2706 25.6173 36.4399 25.3932 36.4125C22.4978 36.1045 18.8318 36.1884 16.2686 36.6221C15.0482 36.8285 14.1389 37.2961 13.0266 38.2894C12.0174 39.1908 11.5225 40.6323 11.7659 41.9642C12.0078 43.2961 12.9815 44.47 14.2437 44.9553C15.2175 45.3311 16.3056 45.2795 17.1552 44.8215C18.0322 44.3458 18.6352 43.3993 18.6577 42.4641C18.6803 41.4885 18.0677 40.5485 17.1988 40.2308C16.6523 40.0293 16.0461 40.1002 15.6608 40.4098C15.2739 40.721 15.1401 41.3225 15.3771 41.6949C15.4883 41.8707 15.7172 41.9932 15.9591 42.0094C16.1719 42.019 16.3459 41.9562 16.4507 41.8288C16.5974 41.6514 16.8602 41.6256 17.0376 41.7723C17.2149 41.9191 17.2407 42.1819 17.094 42.3593C16.8167 42.6947 16.3734 42.8704 15.9075 42.8414C15.3916 42.8092 14.9289 42.5479 14.6726 42.1416C14.2083 41.4079 14.4162 40.3389 15.1385 39.76C15.7575 39.2617 16.6571 39.1424 17.4873 39.4472C18.6803 39.8841 19.525 41.1612 19.4928 42.4834C19.4654 43.7266 18.7029 44.9328 17.5534 45.5536C16.9586 45.8728 16.275 46.0357 15.5786 46.0357Z" fill="white"/>
<path d="M12.3801 51.7908C11.7595 51.7908 11.1388 51.6247 10.6084 51.2909C10.0297 50.9265 9.62344 50.4105 9.46384 49.8397C9.27039 49.1528 9.47188 48.3966 9.96358 47.9596C10.531 47.4533 11.45 47.45 11.9707 47.9515C12.3383 48.3079 12.4656 48.8722 12.2786 49.3253C12.0674 49.8349 11.4774 50.1267 10.9663 49.98C10.7454 49.9155 10.6181 49.6849 10.6826 49.4624C10.7471 49.2415 10.9744 49.1109 11.2001 49.1786C11.3065 49.2109 11.4596 49.1254 11.5096 49.0061C11.5676 48.8674 11.5177 48.6707 11.3935 48.5513C11.184 48.3482 10.7664 48.3627 10.5214 48.582C10.2667 48.8077 10.1635 49.2334 10.2699 49.614C10.3747 49.9864 10.6536 50.3315 11.0566 50.5847C11.8401 51.0781 12.9347 51.0749 13.715 50.5814C14.4969 50.0864 14.9676 49.0996 14.858 48.1805C14.7177 46.9985 13.6763 45.9295 12.7139 45.0201C12.5462 44.862 12.5382 44.5976 12.6961 44.4315C12.8541 44.2638 13.1185 44.2557 13.2846 44.4138C14.355 45.4232 15.5109 46.6228 15.6834 48.0805C15.8317 49.3269 15.2191 50.6153 14.1583 51.2861C13.6263 51.6231 13.0024 51.7908 12.3801 51.7908Z" fill="white"/>
<path d="M30.0586 21.7375C29.6814 21.7375 29.2993 21.7101 28.9172 21.652L24.334 21.0377C24.1067 21.007 23.9455 20.7974 23.9761 20.57C24.0067 20.3411 24.2211 20.1718 24.4452 20.2121L29.0333 20.8264C30.755 21.0796 32.4639 20.6894 33.7359 19.7493C35.0772 18.7592 35.8848 17.1177 35.7929 15.5682C35.6962 13.9492 34.5661 12.4384 33.1055 11.9772C31.5837 11.4967 29.7942 12.2191 29.1187 13.5848C28.777 14.2782 28.7431 15.0586 29.0285 15.6714C29.3267 16.3099 30.0022 16.7243 30.6422 16.6759C31.2774 16.6195 31.8368 16.01 31.7965 15.4214C31.7804 15.1908 31.9528 14.9925 32.1834 14.9764C32.4252 14.957 32.6122 15.1328 32.6283 15.3634C32.7009 16.4066 31.8077 17.408 30.7163 17.5063C29.7281 17.5918 28.7238 16.9855 28.2724 16.0245C27.879 15.1844 27.9161 14.1331 28.3707 13.214C29.2203 11.4951 31.4579 10.584 33.3554 11.1822C35.1626 11.7515 36.5055 13.5348 36.6248 15.5182C36.7344 17.3693 35.8171 19.2478 34.2308 20.4201C33.07 21.2779 31.5934 21.7375 30.0586 21.7375Z" fill="white"/>
<path d="M29.3784 29.8004C29.1527 29.8004 28.9657 29.6182 28.9609 29.3908C28.956 29.1603 29.1398 28.97 29.3704 28.9651C30.544 28.9426 31.3178 28.9281 32.4076 28.6394C33.5764 28.3282 34.513 27.7187 35.045 26.9205C35.44 26.3272 35.6286 25.608 35.577 24.8969C35.4803 23.5698 34.4259 22.3556 33.1733 22.1315C31.8933 21.9074 30.494 22.7717 30.1909 23.9907C29.9846 24.8195 30.2989 25.7273 30.939 26.1498C31.263 26.3642 31.7015 26.4352 32.119 26.3449C32.485 26.2627 32.78 26.0659 32.9493 25.7886C33.1314 25.4919 33.1363 25.0775 32.9622 24.7098C32.809 24.3841 32.5527 24.1729 32.2625 24.131C32.0352 24.0987 31.8756 23.8875 31.9078 23.6585C31.9401 23.4312 32.1545 23.2748 32.3786 23.3038C32.946 23.3844 33.4458 23.7762 33.7166 24.3535C34.0084 24.9727 33.9874 25.6886 33.6618 26.2223C33.3732 26.6948 32.8896 27.027 32.3012 27.1576C31.6596 27.2995 30.9986 27.185 30.4811 26.8448C29.5396 26.2256 29.0899 24.9678 29.3833 23.7875C29.7944 22.138 31.5919 20.9996 33.3217 21.3092C34.958 21.601 36.2863 23.1167 36.4105 24.8356C36.475 25.7305 36.2364 26.6351 35.7398 27.3817C35.0966 28.3476 33.9891 29.0812 32.6236 29.4441C31.4371 29.7601 30.5778 29.7762 29.3881 29.7972C29.3832 29.8004 29.38 29.8004 29.3784 29.8004Z" fill="white"/>
<path d="M35.9864 25.8606C35.7768 25.8606 35.5946 25.701 35.5721 25.4882C35.2561 22.5277 35.3448 18.769 35.7881 16.1358C36.0605 14.5314 36.7312 13.5124 37.6549 12.4771C38.7447 11.2549 40.4906 10.6567 42.0995 10.9501C43.71 11.2452 45.1303 12.4223 45.7187 13.9509C46.1798 15.149 46.1137 16.497 45.5398 17.558C44.9191 18.7077 43.7133 19.4704 42.4703 19.4994C42.4478 19.4994 42.4252 19.5011 42.4026 19.5011C41.1048 19.5011 39.8635 18.6658 39.4347 17.4935C39.13 16.6647 39.2493 15.7634 39.7474 15.1442C40.3262 14.4218 41.3934 14.2138 42.1285 14.6782C42.5348 14.9362 42.796 15.3989 42.8282 15.9149C42.8572 16.3922 42.6815 16.8244 42.3462 17.1017C42.1672 17.2484 41.9061 17.2226 41.7594 17.0453C41.6127 16.8663 41.6385 16.6051 41.8158 16.4583C41.9432 16.3535 42.0093 16.1745 41.9964 15.9665C41.9819 15.723 41.8577 15.4941 41.682 15.3828C41.308 15.1474 40.7066 15.2796 40.3971 15.6682C40.086 16.0536 40.0167 16.6583 40.2182 17.2065C40.5309 18.0595 41.4434 18.6674 42.401 18.6674C42.4187 18.6674 42.4348 18.6674 42.451 18.6658C43.386 18.6432 44.3323 18.0402 44.8079 17.163C45.2657 16.3132 45.3173 15.2248 44.9417 14.2509C44.4564 12.9883 43.2828 12.0144 41.9512 11.7725C40.6196 11.5258 39.1784 12.024 38.2772 13.0335C37.2841 14.1461 36.8182 15.0555 36.6103 16.2761C36.1766 18.8416 36.0928 22.5099 36.4007 25.4027C36.4249 25.6317 36.2588 25.8364 36.0299 25.8606C36.017 25.8606 36.0009 25.8606 35.9864 25.8606Z" fill="white"/>
<path d="M48.4401 15.708C48.316 15.708 48.1918 15.6999 48.0693 15.6854C46.6103 15.5113 45.4125 14.3567 44.4033 13.2861C44.2454 13.1184 44.2534 12.8555 44.4211 12.6975C44.5887 12.5379 44.8531 12.5476 45.0095 12.7153C45.9187 13.6779 46.9876 14.7179 48.1692 14.8598C49.0801 14.9695 50.0748 14.4986 50.5697 13.7166C51.0646 12.9345 51.0662 11.8413 50.5745 11.0576C50.3214 10.6545 49.9764 10.3756 49.6024 10.2708C49.2252 10.1627 48.798 10.2659 48.5706 10.5207C48.3514 10.7674 48.3369 11.1834 48.54 11.3946C48.6609 11.5188 48.856 11.5688 48.9947 11.5107C49.1123 11.4624 49.1978 11.3092 49.1672 11.2028C49.1027 10.9818 49.23 10.7513 49.4509 10.6852C49.675 10.6239 49.9023 10.748 49.9684 10.969C50.1167 11.4817 49.8249 12.0703 49.3139 12.2815C48.8576 12.4685 48.295 12.3412 47.9403 11.9735C47.4373 11.4543 47.4406 10.5352 47.9484 9.966C48.3853 9.47581 49.1365 9.27425 49.8281 9.46775C50.4004 9.62899 50.9163 10.0353 51.279 10.6126C51.948 11.6768 51.9464 13.1022 51.2742 14.1633C50.6696 15.1162 49.5637 15.708 48.4401 15.708Z" fill="white"/>
<path d="M24.8918 24.8977C24.7596 22.7515 24.6596 18.7526 24.5274 16.608C24.4259 14.9617 24.2969 13.2315 23.3876 11.8835C22.293 10.2613 20.0828 9.50187 18.1628 10.092C16.2427 10.6822 14.7612 12.5736 14.6613 14.5634L14.5597 14.665C12.5703 14.765 10.6793 16.2468 10.0893 18.1673C9.49924 20.0877 10.2586 22.2984 11.8804 23.3933C13.2281 24.3027 14.9579 24.4317 16.6039 24.5333C18.7496 24.6639 22.746 24.7655 24.8918 24.8977Z" fill="white"/>
<path d="M200.692 308.188C198.354 308.188 196.019 307.035 194.685 305.087C193.265 303.01 193.054 300.319 192.883 298.158C192.762 296.631 192.639 294.412 192.522 292.268C192.404 290.128 192.282 287.916 192.162 286.397L192.124 285.91L192.611 285.948C194.129 286.068 196.341 286.19 198.482 286.308C200.626 286.427 202.843 286.55 204.369 286.669C206.531 286.84 209.222 287.053 211.297 288.473C213.779 290.171 214.971 293.5 214.129 296.387C213.312 299.195 210.649 301.323 207.74 301.53C207.534 304.44 205.407 307.102 202.599 307.92C201.977 308.1 201.335 308.186 200.692 308.188ZM193.03 286.816C193.139 288.307 193.247 290.292 193.355 292.219C193.473 294.361 193.596 296.573 193.715 298.092C193.886 300.262 194.079 302.721 195.375 304.616C196.876 306.809 199.815 307.863 202.365 307.118C204.901 306.38 206.808 303.939 206.916 301.301L206.77 300.557L207.511 300.707C210.149 300.598 212.589 298.69 213.328 296.154C214.071 293.603 213.018 290.662 210.826 289.162C208.933 287.867 206.475 287.672 204.305 287.5C202.788 287.38 200.576 287.258 198.435 287.14C196.509 287.034 194.521 286.926 193.03 286.816Z" fill="white"/>
<path d="M201.379 291.811C201.174 291.811 200.993 291.659 200.966 291.449L200.352 286.86C200.067 284.937 200.515 282.998 201.582 281.55C202.754 279.964 204.627 279.059 206.483 279.156C208.467 279.275 210.25 280.62 210.818 282.426C211.416 284.327 210.505 286.562 208.786 287.412C207.866 287.867 206.816 287.902 205.976 287.51C205.014 287.06 204.405 286.054 204.495 285.066C204.593 283.974 205.594 283.094 206.637 283.153C206.866 283.169 207.04 283.368 207.024 283.598C207.008 283.827 206.818 283.995 206.579 283.985C206.01 283.934 205.383 284.505 205.325 285.14C205.269 285.775 205.691 286.454 206.33 286.754C206.942 287.041 207.722 287.007 208.416 286.664C209.781 285.99 210.502 284.201 210.023 282.676C209.563 281.215 208.053 280.085 206.433 279.988C204.887 279.883 203.244 280.704 202.253 282.046C201.314 283.318 200.923 285.03 201.176 286.744L201.79 291.34C201.82 291.567 201.661 291.778 201.432 291.807C201.417 291.811 201.398 291.811 201.379 291.811Z" fill="white"/>
<path d="M192.623 286.822C192.622 286.822 192.618 286.822 192.615 286.822C192.386 286.817 192.202 286.627 192.206 286.396C192.228 285.206 192.244 284.347 192.559 283.162C192.921 281.794 193.655 280.687 194.621 280.043C195.367 279.547 196.273 279.313 197.168 279.372C198.885 279.497 200.4 280.825 200.692 282.462C200.998 284.187 199.863 285.99 198.214 286.401C197.034 286.695 195.778 286.243 195.158 285.303C194.816 284.785 194.703 284.121 194.845 283.483C194.975 282.892 195.307 282.41 195.78 282.12C196.313 281.794 197.029 281.773 197.648 282.065C198.224 282.338 198.616 282.838 198.696 283.404C198.728 283.631 198.57 283.842 198.341 283.876C198.119 283.902 197.903 283.75 197.871 283.521C197.829 283.229 197.618 282.975 197.292 282.821C196.926 282.647 196.512 282.652 196.213 282.834C195.936 283.004 195.738 283.3 195.657 283.666C195.565 284.079 195.638 284.519 195.852 284.845C196.275 285.485 197.181 285.798 198.011 285.593C199.23 285.29 200.099 283.897 199.87 282.61C199.647 281.357 198.433 280.303 197.107 280.206C196.397 280.154 195.675 280.343 195.082 280.738C194.284 281.269 193.674 282.206 193.363 283.376C193.075 284.465 193.06 285.24 193.038 286.412C193.036 286.64 192.851 286.822 192.623 286.822Z" fill="white"/>
<path d="M200.337 280.396C199.019 280.396 197.705 280.335 196.518 280.208C196.289 280.183 196.123 279.979 196.147 279.75C196.172 279.521 196.392 279.351 196.605 279.379C199.497 279.687 203.163 279.603 205.73 279.169C206.95 278.963 207.859 278.497 208.972 277.502C209.981 276.6 210.476 275.159 210.233 273.827C209.991 272.495 209.019 271.321 207.755 270.836C206.779 270.46 205.691 270.512 204.843 270.97C203.966 271.445 203.362 272.392 203.341 273.327C203.318 274.303 203.931 275.243 204.8 275.56C205.348 275.764 205.952 275.693 206.338 275.381C206.725 275.07 206.858 274.469 206.621 274.096C206.51 273.921 206.281 273.798 206.038 273.782C205.835 273.766 205.652 273.835 205.548 273.962C205.403 274.141 205.138 274.167 204.961 274.019C204.782 273.874 204.758 273.609 204.904 273.432C205.18 273.095 205.609 272.921 206.089 272.948C206.607 272.98 207.068 273.242 207.326 273.648C207.79 274.382 207.582 275.451 206.86 276.03C206.241 276.528 205.341 276.646 204.511 276.342C203.318 275.905 202.473 274.628 202.506 273.306C202.535 272.063 203.296 270.857 204.445 270.236C205.506 269.662 206.852 269.596 208.053 270.057C209.581 270.646 210.758 272.066 211.051 273.677C211.345 275.288 210.745 277.033 209.525 278.123C208.3 279.218 207.239 279.758 205.867 279.99C204.292 280.258 202.309 280.396 200.337 280.396Z" fill="white"/>
<path d="M209.002 271.491C208.899 271.491 208.798 271.453 208.717 271.376C207.647 270.367 206.491 269.167 206.318 267.709C206.17 266.463 206.782 265.174 207.843 264.504C208.904 263.835 210.329 263.831 211.393 264.499C211.972 264.863 212.378 265.379 212.538 265.95C212.73 266.637 212.53 267.392 212.04 267.83C211.471 268.337 210.552 268.34 210.033 267.837C209.665 267.48 209.538 266.916 209.726 266.463C209.937 265.953 210.527 265.66 211.039 265.808C211.259 265.873 211.387 266.103 211.322 266.326C211.258 266.547 211.029 266.676 210.805 266.61C210.698 266.574 210.544 266.661 210.495 266.782C210.437 266.921 210.487 267.118 210.611 267.237C210.819 267.442 211.238 267.425 211.485 267.208C211.74 266.98 211.841 266.556 211.735 266.174C211.63 265.802 211.351 265.457 210.948 265.204C210.166 264.712 209.072 264.712 208.29 265.207C207.508 265.702 207.037 266.689 207.147 267.608C207.287 268.79 208.329 269.857 209.291 270.767C209.459 270.925 209.467 271.189 209.309 271.355C209.223 271.447 209.114 271.491 209.002 271.491Z" fill="white"/>
<path d="M189.859 304.791C189.449 304.791 189.04 304.731 188.643 304.607C186.837 304.038 185.493 302.255 185.374 300.271C185.264 298.419 186.181 296.54 187.768 295.369C189.217 294.3 191.153 293.852 193.081 294.139L197.665 294.752C197.892 294.782 198.053 294.992 198.022 295.219C197.992 295.447 197.779 295.619 197.553 295.577L192.965 294.963C191.247 294.708 189.535 295.1 188.263 296.039C186.921 297.029 186.114 298.67 186.206 300.22C186.302 301.84 187.432 303.35 188.893 303.809C190.412 304.285 192.204 303.569 192.88 302.201C193.221 301.508 193.255 300.728 192.97 300.115C192.672 299.475 191.998 299.049 191.356 299.11C190.721 299.167 190.162 299.776 190.202 300.365C190.218 300.595 190.044 300.794 189.815 300.81C189.562 300.823 189.385 300.653 189.37 300.423C189.298 299.38 190.191 298.378 191.282 298.28C192.272 298.198 193.276 298.801 193.726 299.763C194.119 300.603 194.082 301.653 193.628 302.572C192.956 303.935 191.414 304.791 189.859 304.791Z" fill="white"/>
<path d="M189.251 294.53C189.06 294.53 188.87 294.514 188.678 294.48C187.042 294.188 185.714 292.672 185.59 290.955C185.525 290.058 185.764 289.154 186.26 288.407C186.904 287.441 188.011 286.708 189.377 286.345C190.563 286.029 191.422 286.013 192.612 285.992C192.615 285.992 192.618 285.992 192.62 285.992C192.846 285.992 193.033 286.174 193.038 286.401C193.042 286.632 192.859 286.822 192.628 286.827C191.455 286.85 190.681 286.864 189.591 287.153C188.422 287.464 187.485 288.073 186.953 288.872C186.558 289.465 186.37 290.184 186.421 290.895C186.518 292.222 187.573 293.436 188.825 293.659C190.113 293.883 191.505 293.019 191.808 291.8C192.014 290.971 191.7 290.063 191.06 289.642C190.734 289.428 190.295 289.355 189.881 289.446C189.515 289.528 189.218 289.725 189.049 290.002C188.867 290.299 188.862 290.713 189.036 291.081C189.19 291.406 189.446 291.618 189.738 291.66C189.965 291.692 190.125 291.903 190.092 292.132C190.06 292.359 189.841 292.516 189.62 292.487C189.054 292.406 188.554 292.014 188.282 291.439C187.99 290.819 188.011 290.102 188.337 289.57C188.625 289.097 189.109 288.765 189.699 288.635C190.339 288.493 191.002 288.607 191.519 288.949C192.459 289.568 192.91 290.826 192.617 292.006C192.253 293.469 190.784 294.528 189.251 294.53Z" fill="white"/>
<path d="M180.723 304.915C180.447 304.915 180.17 304.891 179.899 304.843C178.288 304.549 176.868 303.372 176.28 301.844C175.818 300.646 175.885 299.296 176.459 298.235C177.079 297.084 178.285 296.323 179.528 296.295C179.552 296.294 179.575 296.294 179.597 296.294C180.893 296.294 182.133 297.129 182.564 298.301C182.868 299.13 182.749 300.03 182.251 300.649C181.672 301.371 180.603 301.579 179.87 301.115C179.463 300.857 179.202 300.394 179.17 299.878C179.141 299.401 179.317 298.969 179.654 298.693C179.831 298.546 180.094 298.572 180.241 298.749C180.387 298.927 180.361 299.19 180.184 299.336C180.057 299.441 179.991 299.62 180.004 299.826C180.018 300.07 180.142 300.299 180.318 300.41C180.692 300.644 181.292 300.513 181.603 300.125C181.912 299.739 181.983 299.135 181.782 298.588C181.471 297.735 180.558 297.127 179.601 297.127C179.583 297.127 179.565 297.127 179.549 297.129C178.614 297.15 177.668 297.753 177.192 298.632C176.734 299.481 176.684 300.57 177.058 301.544C177.543 302.808 178.717 303.78 180.049 304.022C181.377 304.269 182.822 303.771 183.723 302.761C184.716 301.649 185.183 300.739 185.39 299.518C185.823 296.953 185.907 293.285 185.599 290.392C185.575 290.163 185.741 289.958 185.97 289.934C186.191 289.91 186.404 290.074 186.428 290.305C186.744 293.265 186.655 297.024 186.212 299.657C185.98 301.029 185.44 302.09 184.345 303.316C183.437 304.33 182.078 304.915 180.723 304.915Z" fill="white"/>
<path d="M172.702 306.397C172.525 306.397 172.348 306.373 172.174 306.325C171.601 306.164 171.087 305.757 170.723 305.18C170.055 304.117 170.057 302.692 170.726 301.629C171.397 300.57 172.693 299.954 173.931 300.104C175.39 300.278 176.588 301.434 177.597 302.503C177.755 302.671 177.748 302.934 177.579 303.092C177.411 303.251 177.147 303.242 176.991 303.074C176.081 302.111 175.012 301.071 173.831 300.929C172.913 300.828 171.925 301.292 171.43 302.073C170.935 302.855 170.934 303.948 171.426 304.732C171.68 305.135 172.024 305.414 172.396 305.519C172.778 305.627 173.202 305.522 173.429 305.267C173.649 305.02 173.663 304.606 173.458 304.395C173.339 304.27 173.146 304.221 173.004 304.279C172.886 304.327 172.801 304.48 172.831 304.588C172.896 304.809 172.768 305.041 172.548 305.106C172.323 305.169 172.095 305.043 172.03 304.822C171.882 304.309 172.174 303.719 172.685 303.509C173.139 303.322 173.703 303.45 174.058 303.816C174.561 304.335 174.558 305.256 174.052 305.823C173.726 306.193 173.223 306.397 172.702 306.397Z" fill="white"/>
<path d="M197.106 290.894C197.239 293.04 197.339 297.039 197.472 299.185C197.574 300.832 197.703 302.562 198.612 303.91C199.707 305.532 201.919 306.292 203.837 305.701C205.757 305.111 207.239 303.22 207.339 301.23L207.44 301.128C209.43 301.028 211.321 299.547 211.911 297.626C212.501 295.706 211.743 293.495 210.12 292.4C208.772 291.491 207.042 291.362 205.396 291.26C203.25 291.126 199.252 291.026 197.106 290.894Z" fill="white"/>
<path d="M21.3082 308.188C20.6649 308.188 20.0233 308.1 19.401 307.92C16.5943 307.102 14.4663 304.44 14.26 301.53C11.3501 301.323 8.68849 299.195 7.87115 296.387C7.03124 293.501 8.22099 290.173 10.7037 288.473C12.7784 287.053 15.4691 286.842 17.6309 286.669C19.1576 286.548 21.3743 286.426 23.5184 286.308C25.6593 286.19 27.8711 286.068 29.3897 285.948L29.8766 285.91L29.8379 286.397C29.7186 287.914 29.5961 290.126 29.4784 292.268C29.3607 294.412 29.2366 296.631 29.1173 298.158C28.9464 300.32 28.7352 303.01 27.3149 305.087C25.9817 307.033 23.6457 308.188 21.3082 308.188ZM15.0822 301.301C15.1902 303.939 17.0973 306.38 19.6332 307.118C22.1884 307.863 25.1257 306.809 26.6233 304.616C27.9195 302.721 28.1129 300.262 28.2838 298.092C28.4031 296.573 28.5256 294.361 28.6433 292.219C28.7497 290.292 28.8593 288.306 28.969 286.816C27.4778 286.924 25.4916 287.034 23.5635 287.14C21.4242 287.258 19.2124 287.38 17.6938 287.5C15.5239 287.672 13.0638 287.866 11.1728 289.162C8.98028 290.662 7.92757 293.601 8.67075 296.154C9.4091 298.688 11.8499 300.596 14.4873 300.707L15.2289 300.557L15.0822 301.301Z" fill="white"/>
<path d="M20.6198 291.811C20.6004 291.811 20.5827 291.809 20.5633 291.806C20.336 291.775 20.1748 291.566 20.2055 291.339L20.8197 286.749C21.0744 285.031 20.6811 283.318 19.7428 282.046C18.753 280.704 17.115 279.884 15.5626 279.988C13.9424 280.085 12.4319 281.215 11.9724 282.676C11.492 284.2 12.2142 285.988 13.5797 286.664C14.2729 287.007 15.0548 287.041 15.6658 286.754C16.3058 286.456 16.7265 285.775 16.6701 285.14C16.6137 284.505 15.9882 283.937 15.4159 283.986C15.1676 283.992 14.987 283.828 14.9709 283.599C14.9548 283.368 15.1289 283.17 15.3579 283.154C16.3912 283.091 17.402 283.974 17.5003 285.066C17.589 286.054 16.9796 287.061 16.0188 287.511C15.1789 287.904 14.1294 287.867 13.2089 287.412C11.4904 286.564 10.5779 284.327 11.1776 282.426C11.7467 280.62 13.5297 279.276 15.5126 279.156C17.3682 279.05 19.2414 279.964 20.4134 281.551C21.4823 282.999 21.9305 284.937 21.6435 286.867L21.0293 291.451C21.0051 291.659 20.8261 291.811 20.6198 291.811Z" fill="white"/>
<path d="M29.3751 286.822C29.1478 286.822 28.9624 286.64 28.9576 286.413C28.935 285.24 28.9205 284.465 28.6319 283.375C28.3208 282.206 27.7114 281.269 26.9134 280.737C26.3202 280.342 25.6044 280.155 24.8902 280.205C23.5634 280.301 22.3495 281.356 22.1254 282.609C21.8965 283.894 22.7654 285.289 23.9842 285.592C24.8047 285.797 25.7204 285.485 26.1412 284.844C26.3556 284.518 26.4298 284.078 26.3379 283.665C26.2573 283.299 26.059 283.002 25.7817 282.833C25.4851 282.651 25.0724 282.646 24.7032 282.82C24.3776 282.973 24.1664 283.23 24.1244 283.52C24.0922 283.749 23.8762 283.899 23.6521 283.875C23.4248 283.842 23.2652 283.631 23.2974 283.402C23.3781 282.835 23.7698 282.335 24.3469 282.064C24.9627 281.772 25.6801 281.793 26.2154 282.119C26.6877 282.407 27.0198 282.891 27.152 283.481C27.2939 284.12 27.1794 284.784 26.8376 285.302C26.2186 286.242 24.9579 286.693 23.7827 286.4C22.1318 285.989 20.9985 284.186 21.3048 282.46C21.5966 280.824 23.112 279.495 24.8305 279.371C25.722 279.311 26.6297 279.545 27.3761 280.042C28.3417 280.685 29.0753 281.793 29.438 283.159C29.754 284.345 29.7701 285.205 29.791 286.395C29.7959 286.625 29.6121 286.816 29.3816 286.821C29.38 286.822 29.3783 286.822 29.3751 286.822Z" fill="white"/>
<path d="M21.6628 280.396C19.6896 280.396 17.7083 280.257 16.13 279.991C14.7581 279.759 13.6974 279.219 12.4721 278.124C11.2518 277.034 10.6521 275.288 10.9455 273.678C11.2389 272.068 12.4157 270.647 13.9456 270.059C15.1434 269.597 16.4928 269.665 17.5519 270.237C18.703 270.858 19.4639 272.064 19.4913 273.308C19.5219 274.63 18.6788 275.907 17.4858 276.344C16.6572 276.647 15.756 276.529 15.137 276.031C14.4148 275.452 14.2068 274.383 14.6695 273.649C14.9274 273.243 15.3901 272.982 15.906 272.95C16.3719 272.914 16.8152 273.095 17.0925 273.432C17.2392 273.611 17.2134 273.872 17.0361 274.019C16.8571 274.164 16.5959 274.14 16.4492 273.962C16.3444 273.835 16.1736 273.774 15.9576 273.782C15.7141 273.796 15.4852 273.92 15.374 274.096C15.1386 274.469 15.2708 275.07 15.6593 275.381C16.0446 275.692 16.6475 275.762 17.1973 275.56C18.0662 275.243 18.6788 274.303 18.6562 273.327C18.6353 272.392 18.0323 271.445 17.1537 270.97C16.3042 270.512 15.2176 270.46 14.2422 270.836C12.9783 271.321 12.0063 272.495 11.7644 273.827C11.521 275.159 12.0159 276.6 13.0251 277.502C14.1375 278.495 15.0467 278.963 16.2671 279.169C18.8336 279.603 22.4979 279.687 25.3917 279.379C25.6174 279.351 25.8253 279.519 25.8495 279.749C25.8737 279.978 25.7076 280.183 25.4787 280.207C24.2954 280.335 22.9815 280.396 21.6628 280.396Z" fill="white"/>
<path d="M12.9962 271.491C12.8849 271.491 12.7753 271.447 12.6931 271.36C12.5351 271.193 12.5432 270.93 12.7108 270.772C13.6733 269.862 14.7131 268.793 14.855 267.611C14.9646 266.692 14.4938 265.705 13.7119 265.21C12.9317 264.715 11.8354 264.714 11.0536 265.207C10.6505 265.462 10.3717 265.805 10.2669 266.178C10.1605 266.558 10.262 266.984 10.5184 267.211C10.7666 267.431 11.1809 267.445 11.3905 267.24C11.5146 267.121 11.5646 266.924 11.5066 266.786C11.4566 266.666 11.3051 266.581 11.1971 266.613C10.973 266.678 10.7441 266.55 10.6796 266.329C10.6151 266.108 10.7425 265.876 10.9633 265.812C11.4744 265.662 12.066 265.957 12.2756 266.466C12.4626 266.919 12.3368 267.484 11.9677 267.84C11.4469 268.342 10.528 268.34 9.96054 267.834C9.46885 267.395 9.26897 266.641 9.46081 265.954C9.62041 265.381 10.0283 264.867 10.6054 264.502C11.6678 263.835 13.0929 263.836 14.1553 264.507C15.2144 265.178 15.8287 266.466 15.6804 267.713C15.5063 269.172 14.3504 270.372 13.2815 271.38C13.2025 271.454 13.0994 271.491 12.9962 271.491Z" fill="white"/>
<path d="M32.1399 304.791C30.5842 304.791 29.0431 303.937 28.3708 302.574C27.9178 301.655 27.8807 300.604 28.2725 299.765C28.7222 298.803 29.733 298.203 30.7164 298.282C31.8062 298.38 32.7009 299.382 32.6284 300.425C32.6123 300.654 32.4269 300.828 32.1835 300.812C31.9545 300.796 31.7804 300.597 31.7966 300.367C31.8369 299.78 31.2774 299.17 30.6423 299.112C30.0039 299.054 29.3284 299.478 29.0285 300.117C28.7416 300.73 28.7754 301.509 29.1188 302.203C29.7927 303.571 31.5837 304.288 33.1056 303.811C34.5662 303.352 35.6962 301.841 35.793 300.22C35.8849 298.672 35.0772 297.031 33.7359 296.039C32.464 295.101 30.7535 294.71 29.0382 294.962L24.4437 295.576C24.2196 295.617 24.0052 295.447 23.9746 295.218C23.9439 294.991 24.1035 294.78 24.3324 294.751L28.9205 294.136C30.8438 293.848 32.7815 294.298 34.2292 295.367C35.8155 296.539 36.7329 298.416 36.6232 300.269C36.5039 302.253 35.1594 304.037 33.3539 304.604C32.9605 304.732 32.5494 304.791 32.1399 304.791Z" fill="white"/>
<path d="M32.7494 294.53C31.2146 294.53 29.7476 293.469 29.3817 292.001C29.0883 290.821 29.5396 289.563 30.4795 288.944C30.997 288.604 31.6612 288.489 32.2996 288.631C32.8896 288.762 33.3716 289.094 33.6618 289.566C33.9874 290.1 34.0084 290.816 33.7166 291.435C33.4442 292.011 32.9444 292.403 32.3786 292.483C32.1545 292.512 31.9385 292.358 31.9078 292.129C31.8756 291.901 32.0336 291.69 32.2625 291.656C32.5543 291.614 32.8106 291.403 32.9622 291.077C33.1363 290.71 33.1314 290.297 32.9493 289.998C32.78 289.721 32.485 289.523 32.1174 289.442C31.7031 289.35 31.2646 289.424 30.9389 289.637C30.2989 290.06 29.9846 290.966 30.1909 291.796C30.494 293.015 31.8949 293.878 33.1733 293.656C34.4243 293.433 35.4803 292.219 35.577 290.892C35.6286 290.179 35.44 289.46 35.045 288.868C34.5146 288.07 33.578 287.46 32.4076 287.149C31.3194 286.861 30.544 286.846 29.372 286.824C29.1431 286.819 28.9593 286.628 28.9625 286.398C28.9673 286.17 29.1527 285.988 29.38 285.988C29.3817 285.988 29.3848 285.988 29.3881 285.988C30.5778 286.011 31.4371 286.027 32.622 286.341C33.9891 286.704 35.0966 287.438 35.7398 288.404C36.238 289.15 36.475 290.055 36.4105 290.951C36.2863 292.67 34.958 294.184 33.3217 294.476C33.1298 294.513 32.9396 294.53 32.7494 294.53Z" fill="white"/>
<path d="M41.2775 304.915C39.9201 304.917 38.5627 304.33 37.6566 303.316C36.5636 302.09 36.0236 301.031 35.7898 299.657C35.3449 297.024 35.2578 293.265 35.5738 290.305C35.598 290.076 35.8205 289.913 36.0317 289.934C36.2606 289.958 36.4266 290.163 36.4024 290.392C36.0945 293.285 36.1783 296.951 36.612 299.518C36.8183 300.739 37.2859 301.649 38.2789 302.761C39.1801 303.771 40.623 304.27 41.953 304.022C43.2846 303.78 44.4582 302.808 44.9434 301.544C45.3174 300.57 45.2691 299.481 44.8096 298.632C44.3341 297.754 43.3877 297.151 42.4527 297.129C41.5128 297.084 40.5375 297.719 40.2199 298.588C40.0184 299.136 40.0893 299.739 40.3989 300.126C40.71 300.515 41.3097 300.647 41.6837 300.41C41.8594 300.299 41.982 300.07 41.9981 299.826C42.011 299.62 41.9449 299.441 41.8175 299.336C41.6386 299.191 41.6144 298.927 41.7611 298.749C41.9078 298.57 42.1706 298.545 42.3479 298.693C42.6849 298.969 42.8606 299.402 42.8316 299.878C42.7993 300.396 42.5381 300.857 42.1319 301.115C41.3984 301.581 40.3295 301.37 39.7508 300.649C39.2526 300.03 39.1334 299.13 39.438 298.299C39.8749 297.106 41.1598 296.274 42.4737 296.294C43.7166 296.323 44.9225 297.084 45.5432 298.233C46.1171 299.294 46.1831 300.642 45.7221 301.842C45.1337 303.371 43.7134 304.548 42.1029 304.841C41.8288 304.891 41.5531 304.915 41.2775 304.915Z" fill="white"/>
<path d="M49.2978 306.398C48.777 306.398 48.2725 306.193 47.9468 305.825C47.439 305.258 47.4358 304.337 47.9387 303.818C48.2934 303.452 48.8593 303.323 49.3123 303.511C49.8217 303.722 50.1151 304.311 49.9668 304.824C49.9023 305.045 49.6734 305.172 49.4493 305.108C49.2285 305.043 49.1011 304.813 49.1656 304.59C49.1978 304.482 49.1124 304.329 48.9931 304.28C48.8528 304.221 48.6577 304.272 48.5384 304.397C48.3353 304.608 48.3482 305.024 48.5691 305.269C48.7964 305.524 49.2204 305.627 49.6008 305.52C49.9732 305.416 50.3182 305.137 50.5713 304.734C51.0647 303.95 51.063 302.857 50.5665 302.075C50.0732 301.293 49.093 300.831 48.166 300.931C46.9844 301.072 45.9172 302.113 45.0079 303.076C44.8499 303.244 44.5855 303.252 44.4195 303.094C44.2518 302.936 44.2438 302.671 44.4018 302.505C45.411 301.434 46.6104 300.278 48.0677 300.106C49.3139 299.954 50.602 300.572 51.2726 301.631C51.9432 302.692 51.9449 304.118 51.2774 305.182C50.9131 305.761 50.3972 306.167 49.8265 306.327C49.6524 306.373 49.4735 306.398 49.2978 306.398Z" fill="white"/>
<path d="M24.8919 290.894C24.7597 293.04 24.6597 297.039 24.5275 299.185C24.426 300.832 24.297 302.562 23.3877 303.91C22.2931 305.532 20.0829 306.292 18.1629 305.701C16.2429 305.111 14.7613 303.22 14.6614 301.23L14.5598 301.128C12.5704 301.028 10.6794 299.547 10.0894 297.626C9.49935 295.706 10.2587 293.495 11.8805 292.4C13.2282 291.491 14.958 291.362 16.604 291.26C18.7497 291.126 22.7461 291.026 24.8919 290.894Z" fill="white"/>
<path d="M208 45H203V270H208V45Z" fill="white"/>
<path d="M19 45H14V270H19V45Z" fill="white"/>
<path d="M48.5586 11.0332L48.5586 15.9883L173.441 15.9883L173.441 11.0332L48.5586 11.0332Z" fill="white"/>
<path d="M48.5583 299.988L48.5583 304.943L173.441 304.943L173.441 299.988L48.5583 299.988Z" fill="white"/>
</svg>
